<svg width="96" height="37" viewBox="0 0 96 37" fill="none" xmlns="http://www.w3.org/2000/svg">
<path d="M12.8888 3.4423V14H10.3171V7.66839L7.95588 14H5.88043L3.50419 7.65335V14H0.932447V3.4423H3.97042L6.93319 10.7515L9.86589 3.4423H12.8888ZM14.2269 9.78895C14.2269 8.92669 14.3873 8.1697 14.7081 7.51799C15.039 6.86628 15.4852 6.36497 16.0466 6.01405C16.6081 5.66313 17.2348 5.48766 17.9266 5.48766C18.5181 5.48766 19.0345 5.60798 19.4756 5.84861C19.9268 6.08924 20.2727 6.40507 20.5134 6.7961V5.60798H23.0851V14H20.5134V12.8119C20.2627 13.2029 19.9118 13.5187 19.4606 13.7594C19.0194 14 18.5031 14.1203 17.9115 14.1203C17.2297 14.1203 16.6081 13.9449 16.0466 13.5939C15.4852 13.233 15.039 12.7267 14.7081 12.0749C14.3873 11.4132 14.2269 10.6512 14.2269 9.78895ZM20.5134 9.80399C20.5134 9.16231 20.3329 8.65598 19.9719 8.285C19.621 7.91403 19.1899 7.72854 18.6785 7.72854C18.1672 7.72854 17.7311 7.91403 17.3701 8.285C17.0192 8.64595 16.8437 9.14727 16.8437 9.78895C16.8437 10.4306 17.0192 10.942 17.3701 11.323C17.7311 11.6939 18.1672 11.8794 18.6785 11.8794C19.1899 11.8794 19.621 11.6939 19.9719 11.323C20.3329 10.952 20.5134 10.4457 20.5134 9.80399ZM24.4343 9.80399C24.4343 8.9317 24.6098 8.1697 24.9607 7.51799C25.3216 6.86628 25.8179 6.36497 26.4496 6.01405C27.0913 5.66313 27.8232 5.48766 28.6454 5.48766C29.6981 5.48766 30.5754 5.76339 31.2773 6.31484C31.9891 6.86628 32.4554 7.64332 32.6759 8.64595H29.9387C29.7081 8.00427 29.262 7.68343 28.6002 7.68343C28.129 7.68343 27.753 7.86891 27.4723 8.23989C27.1915 8.60083 27.0512 9.1222 27.0512 9.80399C27.0512 10.4858 27.1915 11.0122 27.4723 11.3831C27.753 11.7441 28.129 11.9246 28.6002 11.9246C29.262 11.9246 29.7081 11.6037 29.9387 10.962H32.6759C32.4554 11.9446 31.9891 12.7166 31.2773 13.2781C30.5654 13.8396 29.6881 14.1203 28.6454 14.1203C27.8232 14.1203 27.0913 13.9449 26.4496 13.5939C25.8179 13.243 25.3216 12.7417 24.9607 12.09C24.6098 11.4383 24.4343 10.6763 24.4343 9.80399ZM41.9623 9.66864C41.9623 9.90927 41.9473 10.1599 41.9172 10.4206H36.0969C36.137 10.942 36.3025 11.343 36.5932 11.6238C36.894 11.8945 37.26 12.0298 37.6911 12.0298C38.3328 12.0298 38.779 11.7591 39.0296 11.2177H41.7668C41.6264 11.7691 41.3708 12.2654 40.9998 12.7066C40.6389 13.1478 40.1827 13.4937 39.6312 13.7443C39.0798 13.995 38.4631 14.1203 37.7814 14.1203C36.9592 14.1203 36.2273 13.9449 35.5856 13.5939C34.9439 13.243 34.4426 12.7417 34.0817 12.09C33.7207 11.4383 33.5402 10.6763 33.5402 9.80399C33.5402 8.9317 33.7157 8.1697 34.0666 7.51799C34.4276 6.86628 34.9289 6.36497 35.5706 6.01405C36.2122 5.66313 36.9492 5.48766 37.7814 5.48766C38.5935 5.48766 39.3154 5.65811 39.947 5.99901C40.5787 6.3399 41.07 6.82618 41.4209 7.45783C41.7819 8.08949 41.9623 8.82643 41.9623 9.66864ZM39.3304 8.99186C39.3304 8.5507 39.18 8.19978 38.8792 7.9391C38.5784 7.67841 38.2025 7.54807 37.7513 7.54807C37.3201 7.54807 36.9542 7.6734 36.6534 7.92406C36.3626 8.17472 36.1822 8.53065 36.112 8.99186H39.3304ZM45.8908 7.00665C46.1916 6.54544 46.5676 6.18449 47.0188 5.92381C47.4699 5.6531 47.9713 5.51774 48.5227 5.51774V8.23989H47.8158C47.1742 8.23989 46.6929 8.38025 46.3721 8.66099C46.0512 8.9317 45.8908 9.41296 45.8908 10.1048V14H43.3191V5.60798H45.8908V7.00665ZM49.2406 9.78895C49.2406 8.92669 49.401 8.1697 49.7219 7.51799C50.0527 6.86628 50.4989 6.36497 51.0604 6.01405C51.6218 5.66313 52.2485 5.48766 52.9403 5.48766C53.5319 5.48766 54.0482 5.60798 54.4894 5.84861C54.9406 6.08924 55.2865 6.40507 55.5271 6.7961V5.60798H58.0988V14H55.5271V12.8119C55.2764 13.2029 54.9255 13.5187 54.4743 13.7594C54.0332 14 53.5168 14.1203 52.9253 14.1203C52.2435 14.1203 51.6218 13.9449 51.0604 13.5939C50.4989 13.233 50.0527 12.7267 49.7219 12.0749C49.401 11.4132 49.2406 10.6512 49.2406 9.78895ZM55.5271 9.80399C55.5271 9.16231 55.3466 8.65598 54.9857 8.285C54.6348 7.91403 54.2036 7.72854 53.6923 7.72854C53.1809 7.72854 52.7448 7.91403 52.3838 8.285C52.0329 8.64595 51.8575 9.14727 51.8575 9.78895C51.8575 10.4306 52.0329 10.942 52.3838 11.323C52.7448 11.6939 53.1809 11.8794 53.6923 11.8794C54.2036 11.8794 54.6348 11.6939 54.9857 11.323C55.3466 10.952 55.5271 10.4457 55.5271 9.80399ZM8.52737 21.4423V23.5027H5.73003V32H3.15829V23.5027H0.360947V21.4423H8.52737ZM18.1048 23.608V32H15.5331V30.857C15.2724 31.228 14.9164 31.5288 14.4653 31.7594C14.0241 31.9799 13.5328 32.0902 12.9914 32.0902C12.3497 32.0902 11.7832 31.9499 11.2919 31.6691C10.8006 31.3784 10.4196 30.9623 10.1489 30.4209C9.87822 29.8794 9.74287 29.2428 9.74287 28.5108V23.608H12.2996V28.1649C12.2996 28.7264 12.445 29.1626 12.7357 29.4734C13.0265 29.7842 13.4175 29.9396 13.9088 29.9396C14.4101 29.9396 14.8062 29.7842 15.0969 29.4734C15.3877 29.1626 15.5331 28.7264 15.5331 28.1649V23.608H18.1048ZM12.45 22.6755C12.1392 22.6755 11.8785 22.5703 11.6679 22.3597C11.4574 22.1492 11.3521 21.8885 11.3521 21.5777C11.3521 21.2668 11.4574 21.0062 11.6679 20.7956C11.8785 20.575 12.1392 20.4647 12.45 20.4647C12.7708 20.4647 13.0365 20.57 13.2471 20.7806C13.4576 20.9911 13.5629 21.2568 13.5629 21.5777C13.5629 21.8885 13.4526 22.1492 13.232 22.3597C13.0215 22.5703 12.7608 22.6755 12.45 22.6755ZM15.4579 22.6755C15.147 22.6755 14.8864 22.5703 14.6758 22.3597C14.4653 22.1492 14.36 21.8885 14.36 21.5777C14.36 21.2668 14.4653 21.0062 14.6758 20.7956C14.8864 20.575 15.147 20.4647 15.4579 20.4647C15.7787 20.4647 16.0444 20.57 16.255 20.7806C16.4655 20.9911 16.5708 21.2568 16.5708 21.5777C16.5708 21.8885 16.4605 22.1492 16.2399 22.3597C16.0294 22.5703 15.7687 22.6755 15.4579 22.6755ZM22.5238 25.0067C22.8246 24.5454 23.2006 24.1845 23.6518 23.9238C24.103 23.6531 24.6043 23.5177 25.1557 23.5177V26.2399H24.4489C23.8072 26.2399 23.3259 26.3803 23.0051 26.661C22.6842 26.9317 22.5238 27.413 22.5238 28.1048V32H19.9521V23.608H22.5238V25.0067ZM31.5134 32L28.9567 28.4808V32H26.385V20.8708H28.9567V27.0219L31.4984 23.608H34.6717L31.1826 27.819L34.7018 32H31.5134ZM36.9752 22.7357C36.524 22.7357 36.1531 22.6053 35.8623 22.3447C35.5816 22.074 35.4412 21.7431 35.4412 21.3521C35.4412 20.951 35.5816 20.6201 35.8623 20.3595C36.1531 20.0887 36.524 19.9534 36.9752 19.9534C37.4164 19.9534 37.7773 20.0887 38.0581 20.3595C38.3488 20.6201 38.4942 20.951 38.4942 21.3521C38.4942 21.7431 38.3488 22.074 38.0581 22.3447C37.7773 22.6053 37.4164 22.7357 36.9752 22.7357ZM38.2536 23.608V32H35.6818V23.608H38.2536ZM48.6898 23.608L43.426 35.9855H40.6587L42.5838 31.7143L39.1698 23.608H42.0423L43.9824 28.8568L45.9075 23.608H48.6898ZM57.5305 27.6686C57.5305 27.9093 57.5155 28.1599 57.4854 28.4206H51.6651C51.7052 28.942 51.8707 29.343 52.1614 29.6238C52.4622 29.8945 52.8282 30.0298 53.2593 30.0298C53.901 30.0298 54.3472 29.7591 54.5978 29.2177H57.335C57.1946 29.7691 56.939 30.2654 56.568 30.7066C56.207 31.1478 55.7508 31.4937 55.1994 31.7443C54.648 31.995 54.0313 32.1203 53.3495 32.1203C52.5274 32.1203 51.7955 31.9449 51.1538 31.5939C50.5121 31.243 50.0108 30.7417 49.6498 30.09C49.2889 29.4383 49.1084 28.6763 49.1084 27.804C49.1084 26.9317 49.2839 26.1697 49.6348 25.518C49.9957 24.8663 50.4971 24.365 51.1387 24.014C51.7804 23.6631 52.5174 23.4877 53.3495 23.4877C54.1617 23.4877 54.8836 23.6581 55.5152 23.999C56.1469 24.3399 56.6382 24.8262 56.9891 25.4578C57.35 26.0895 57.5305 26.8264 57.5305 27.6686ZM54.8986 26.9919C54.8986 26.5507 54.7482 26.1998 54.4474 25.9391C54.1466 25.6784 53.7707 25.5481 53.3195 25.5481C52.8883 25.5481 52.5224 25.6734 52.2216 25.9241C51.9308 26.1747 51.7504 26.5306 51.6802 26.9919H54.8986Z" fill="white"/>
<path d="M80.3105 31.0444C88.1377 31.0444 94.4829 24.6992 94.4829 16.872C94.4829 9.04474 88.1377 2.69952 80.3105 2.69952C72.4833 2.69952 66.1381 9.04474 66.1381 16.872C66.1381 24.6992 72.4833 31.0444 80.3105 31.0444Z" stroke="white" stroke-width="2.83449" stroke-linecap="round" stroke-linejoin="round"/>
<path d="M86.3196 10.8628L83.3151 19.8765L74.3014 22.881L77.3059 13.8674L86.3196 10.8628Z" stroke="white" stroke-width="2.83449" stroke-linecap="round" stroke-linejoin="round"/>
</svg>
